<svg width="138" height="138" viewBox="0 0 138 138" fill="none" xmlns="http://www.w3.org/2000/svg">
<g clip-path="url(#clip0_4_532)">
<g clip-path="url(#clip1_4_532)">
<g opacity="0.25">
<path d="M133.529 14.5328C130.766 12.2351 126.952 10.8164 122.737 10.8164H104.652C106.163 19.0164 101.037 29.5237 94.835 32.5721C86.0444 36.8902 80.1131 33.5478 79.8551 39.5315C82.5723 37.4518 86.1989 36.185 90.1816 36.185H104.684C106.184 33.868 108.801 32.372 111.718 32.372H122.55C123.847 32.372 124.901 33.4195 124.901 34.7098C124.901 35.2328 124.729 35.7144 124.435 36.1063C132.066 35.408 138.001 30.0316 138.001 23.5014C138.001 19.9976 136.292 16.8263 133.53 14.5328H133.529ZM133.529 65.2699C130.766 62.9735 126.952 61.5535 122.737 61.5535H106.657V91.9052C109.445 88.8775 113.839 86.9262 118.781 86.9262H122.736C131.163 86.9262 137.997 81.2475 137.997 74.2399C137.997 70.7374 136.287 67.5648 133.526 65.2699H133.529ZM133.529 116.011C130.766 113.715 126.952 112.295 122.737 112.295H118.782C115.288 112.295 112.071 111.319 109.497 109.677C108.572 114.202 104.542 117.611 99.7147 117.611H91.7493L91.5602 119.433C94.3271 120.818 96.2274 123.667 96.2274 126.957C96.2274 131.606 92.4324 135.374 87.7542 135.374C83.076 135.374 79.2824 131.606 79.2824 126.957C79.2824 123.772 81.0653 120.998 83.6915 119.567L83.2802 117.611H46.6426L46.4536 119.433C49.2232 120.818 51.1207 123.667 51.1207 126.957C51.1207 131.606 47.3257 135.374 42.6475 135.374C37.9693 135.374 34.1757 131.606 34.1757 126.957C34.1757 123.772 35.9587 120.998 38.5848 119.567L38.1736 117.611H24.1514C23.6463 117.611 23.1895 117.408 22.8597 117.078C22.5285 116.749 22.3243 116.295 22.3243 115.794C22.3243 114.793 23.1412 113.98 24.1514 113.98H99.2289C102.994 113.98 106.046 110.945 106.046 107.207V106.598C104.449 104.594 103.521 102.193 103.521 99.6098V99.5974H50.9979V99.6098C50.9979 106.616 44.1641 112.296 35.7365 112.296H15.2614C6.83376 112.296 0 117.975 0 124.982C0 128.485 1.70982 131.655 4.4712 133.95C7.23396 136.247 11.0483 137.666 15.2628 137.666H122.739C131.166 137.666 138 131.987 138 124.984C138 121.48 136.29 118.309 133.529 116.014V116.011ZM103.254 95.968H104.157C104.172 95.9224 104.189 95.8796 104.205 95.8341C103.903 95.921 103.584 95.968 103.253 95.968H103.254ZM15.2614 10.8178C6.83376 10.8178 0 16.4965 0 23.5014C0 27.0038 1.70982 30.1737 4.4712 32.47C7.23396 34.7663 11.0483 36.1864 15.2628 36.1864H16.2868C20.5013 36.1864 24.317 37.6078 27.0784 39.9027C29.8425 42.199 31.5496 45.3689 31.5496 48.8727C31.5496 50.7343 31.0666 52.5035 30.1999 54.096L49.2701 52.262C48.5898 50.065 48.2558 45.8712 53.6254 42.4184C61.283 37.496 52.8361 24.4053 65.8991 21.4976C71.6524 20.217 73.9114 15.4822 76.2629 10.8192H15.2614V10.8178ZM47.0539 42.0458C43.9461 42.0458 41.4248 38.7711 41.4248 34.7318C41.4248 30.6926 43.9461 27.4192 47.0539 27.4192C50.1616 27.4192 52.6843 30.694 52.6843 34.7318C52.6843 38.7697 50.163 42.0458 47.0539 42.0458ZM53.6986 27.4192C52.3503 27.4192 51.2587 25.8529 51.2587 23.9195C51.2587 21.9862 52.3517 20.4199 53.6986 20.4199C55.0454 20.4199 56.1384 21.9862 56.1384 23.9195C56.1384 25.8529 55.0454 27.4192 53.6986 27.4192ZM19.3462 61.2982C18.3581 61.468 17.3342 61.5549 16.2854 61.5549H15.2614C6.83376 61.5549 0 67.2336 0 74.2412C0 77.7437 1.70982 80.9163 4.4712 83.2112C7.23396 85.5076 11.0483 86.9276 15.2628 86.9276H24.07L19.3476 61.2982H19.3462ZM28.5729 95.9666H25.9688C26.1193 95.7127 26.2862 95.4698 26.4629 95.2352C27.0466 95.6947 27.7835 95.9666 28.5743 95.9666H28.5729Z" fill="#75FFC1" fill-opacity="0.75"/>
<path d="M41.3724 100.228C41.3724 104.808 37.6602 108.52 33.08 108.52C28.4998 108.52 24.7889 104.808 24.7889 100.228C24.7889 100.015 24.7972 99.8057 24.8124 99.5974H41.3489C41.3641 99.8057 41.3724 100.015 41.3724 100.228Z" fill="#75FFC1" fill-opacity="0.75"/>
</g>
<path opacity="0.5" d="M106.42 49.2232C105.881 47.8681 104.485 46.9517 102.927 47.1022L102.012 47.1891L101.919 47.1974L77.9479 49.502L49.2674 52.2592L21.9172 54.8881C19.9327 55.0799 18.5389 56.9153 18.8977 58.8625L25.225 93.1942C25.5217 94.8005 26.9307 95.9666 28.5729 95.9666H103.254C105.134 95.9666 106.657 94.4527 106.657 92.5856V50.4652C106.657 50.025 106.573 49.6069 106.419 49.2218L106.42 49.2232ZM33.2539 64.2735L94.0567 59.5787C94.7825 59.5235 95.4215 60.0631 95.4781 60.7876C95.5333 61.5107 94.9895 62.1428 94.2609 62.1994L33.4595 66.8927C33.4236 66.8955 33.3891 66.8969 33.3546 66.8969C32.6715 66.8969 32.0905 66.3739 32.0381 65.6852C31.9801 64.9607 32.5266 64.3287 33.2539 64.2735ZM33.3201 73.761L94.1229 72.0912C94.8515 72.0664 95.4601 72.6432 95.4808 73.3691C95.5015 74.095 94.9247 74.6994 94.1947 74.7201L33.3932 76.3885C33.3794 76.3899 33.3684 76.3899 33.3546 76.3899C32.6411 76.3899 32.0533 75.8241 32.0326 75.1106C32.0132 74.3861 32.5887 73.7817 33.3187 73.761H33.3201ZM94.1602 86.8669H33.356C32.626 86.8669 32.0326 86.2776 32.0326 85.5517C32.0326 84.8258 32.6246 84.2366 33.356 84.2366H94.1588C94.8888 84.2366 95.4822 84.8258 95.4822 85.5517C95.4822 86.2776 94.8902 86.8669 94.1588 86.8669H94.1602Z" fill="#75FFC1" fill-opacity="0.75"/>
<path d="M103.254 96.3806H28.5728C26.7305 96.3806 25.1518 95.0723 24.8192 93.2714L18.4919 58.9384C18.3001 57.9007 18.5554 56.8229 19.193 55.9783C19.8347 55.1269 20.8145 54.5804 21.8798 54.4769L102.89 46.6895C104.571 46.5267 106.183 47.5037 106.806 49.0673C106.984 49.5089 107.074 49.9795 107.074 50.4638V92.5842C107.074 94.6763 105.362 96.3778 103.257 96.3778L103.254 96.3806ZM103.254 47.501C103.159 47.501 103.064 47.5051 102.967 47.5148L101.956 47.6114L21.9571 55.3021C21.1222 55.3822 20.3549 55.8113 19.8526 56.4779C19.3475 57.1472 19.1543 57.9683 19.3048 58.7894L25.6321 93.121C25.8929 94.53 27.1294 95.5526 28.5715 95.5526H103.254C104.903 95.5526 106.243 94.2223 106.243 92.587V50.4666C106.243 50.0885 106.173 49.7214 106.035 49.3778C105.582 48.242 104.465 47.5024 103.254 47.5024V47.501Z" fill="#75FFC1" fill-opacity="0.75"/>
<path opacity="0.5" d="M37.409 113.98L38.1722 117.609H24.15C23.6463 117.609 23.1881 117.406 22.8583 117.078C22.5285 116.749 22.3229 116.297 22.3229 115.794C22.3229 114.793 23.1398 113.98 24.15 113.98H37.409Z" fill="#75FFC1" fill-opacity="0.75"/>
<path opacity="0.5" d="M82.5171 113.98L83.2802 117.611H46.6426L47.0179 113.98H82.5171Z" fill="#75FFC1" fill-opacity="0.75"/>
<path opacity="0.5" d="M109.698 97.8889V107.691C109.698 113.167 105.226 117.609 99.7146 117.609H91.7493L92.1246 113.98H99.2247C102.989 113.98 106.042 110.945 106.042 107.207V101.034C106.042 100.24 105.396 99.5974 104.597 99.5974H24.15C23.1301 99.5974 22.3035 98.7666 22.3228 97.7482C22.3408 96.749 23.2033 95.968 24.2107 95.968H107.764C108.831 95.968 109.698 96.8291 109.698 97.8889Z" fill="#75FFC1" fill-opacity="0.75"/>
<path d="M38.6828 118.023H24.1501C23.5511 118.023 22.9895 117.791 22.5658 117.372C22.1422 116.951 21.9089 116.391 21.9089 115.794C21.9089 114.566 22.915 113.566 24.1501 113.566H37.7458L38.6828 118.023ZM24.1501 114.394C23.3704 114.394 22.7369 115.022 22.7369 115.794C22.7369 116.168 22.8832 116.52 23.1496 116.785C23.4159 117.05 23.7719 117.196 24.1501 117.196H37.663L37.0738 114.395H24.1501V114.394ZM83.7909 118.024H46.1831L46.6454 113.567H82.8539L83.7909 118.024ZM47.1022 117.196H82.7711L82.1818 114.395H47.392L47.1022 117.196Z" fill="#75FFC1" fill-opacity="0.75"/>
<path d="M99.716 118.024H91.2925L91.7548 113.567H99.2289C102.759 113.567 105.632 110.715 105.632 107.208V101.035C105.632 100.471 105.17 100.013 104.601 100.013H24.15C23.5414 100.013 22.9714 99.774 22.5464 99.3407C22.1241 98.9115 21.8978 98.3429 21.9088 97.7413C21.9309 96.5351 22.9632 95.554 24.2107 95.554H107.764C109.059 95.554 110.112 96.6014 110.112 97.8889V107.691C110.112 113.389 105.447 118.023 99.7146 118.023L99.716 118.024ZM92.2102 117.196H99.716C104.992 117.196 109.285 112.932 109.285 107.692V97.8903C109.285 97.0595 108.603 96.3833 107.766 96.3833H24.2107C23.4117 96.3833 22.7506 97.0002 22.7368 97.7578C22.7299 98.1346 22.8721 98.492 23.137 98.7611C23.4061 99.0343 23.7649 99.1847 24.15 99.1847H104.598C105.624 99.1847 106.457 100.016 106.457 101.035V107.208C106.457 111.171 103.213 114.395 99.2261 114.395H92.4986L92.2088 117.196H92.2102ZM51.1193 126.956C51.1193 131.605 47.3243 135.372 42.6461 135.372C37.9679 135.372 34.1743 131.605 34.1743 126.956C34.1743 123.771 35.9572 120.997 38.5834 119.566L39.5149 123.989C38.7724 124.76 38.317 125.806 38.317 126.956C38.317 129.327 40.2601 131.257 42.6475 131.257C45.0349 131.257 46.9793 129.327 46.9793 126.956C46.9793 125.902 46.597 124.936 45.9609 124.189L46.4549 119.432C49.2246 120.816 51.1221 123.666 51.1221 126.956H51.1193Z" fill="#75FFC1" fill-opacity="0.75"/>
<path opacity="0.5" d="M46.9779 126.956C46.9779 129.327 45.0363 131.257 42.6461 131.257C40.256 131.257 38.3157 129.327 38.3157 126.956C38.3157 125.806 38.7725 124.76 39.5135 123.989L40.0628 126.6C40.1566 127.046 40.554 127.367 41.015 127.367H44.752C45.2502 127.367 45.6669 126.995 45.718 126.499L45.9581 124.188C46.5943 124.934 46.9766 125.902 46.9766 126.954L46.9779 126.956Z" fill="#75FFC1" fill-opacity="0.75"/>
<g opacity="0.75">
<path d="M47.0193 113.98L46.6426 117.609L46.4535 119.432L45.9595 124.188L45.7194 126.499C45.6683 126.993 45.2502 127.367 44.752 127.367H41.015C40.5554 127.367 40.1566 127.046 40.0628 126.598L39.5149 123.989L38.5848 119.566L38.1735 117.609L37.4104 113.98H47.0193Z" fill="#75FFC1" fill-opacity="0.75"/>
</g>
<path d="M96.2288 126.956C96.2288 131.605 92.4338 135.372 87.7556 135.372C83.0774 135.372 79.2838 131.605 79.2838 126.956C79.2838 123.771 81.0668 120.997 83.6929 119.566L84.623 123.989C83.8806 124.76 83.4266 125.806 83.4266 126.956C83.4266 129.327 85.3696 131.257 87.757 131.257C90.1444 131.257 92.0888 129.327 92.0888 126.956C92.0888 125.902 91.7066 124.936 91.0704 124.189L91.5644 119.432C94.3313 120.816 96.2316 123.666 96.2316 126.956H96.2288Z" fill="#75FFC1" fill-opacity="0.75"/>
<path opacity="0.5" d="M92.086 126.956C92.086 129.327 90.1429 131.257 87.7541 131.257C85.3654 131.257 83.4237 129.327 83.4237 126.956C83.4237 125.806 83.8791 124.76 84.6202 123.989L85.1694 126.6C85.2632 127.046 85.6634 127.367 86.123 127.367H89.8586C90.3568 127.367 90.775 126.995 90.8274 126.499L91.0675 124.188C91.7037 124.934 92.086 125.902 92.086 126.954V126.956Z" fill="#75FFC1" fill-opacity="0.75"/>
<path opacity="0.75" d="M92.1261 113.98L91.7507 117.609L91.5616 119.432L91.0676 124.189L90.8275 126.5C90.775 126.996 90.3569 127.368 89.8587 127.368H86.1231C85.6635 127.368 85.2633 127.048 85.1695 126.601L84.6202 123.99L83.6901 119.567L83.2789 117.611L82.5157 113.981H92.1261V113.98Z" fill="#75FFC1" fill-opacity="0.75"/>
<path d="M44.752 127.782H41.015C40.3622 127.782 39.7909 127.322 39.6571 126.685L36.8984 113.567H47.4775L46.1306 126.545C46.0575 127.251 45.4641 127.784 44.752 127.784V127.782ZM37.9196 114.395L40.4685 126.516C40.5223 126.77 40.7528 126.954 41.0164 126.954H44.7534C45.0404 126.954 45.2792 126.741 45.3095 126.458L46.5612 114.394H37.921L37.9196 114.395ZM89.8587 127.781H86.123C85.4703 127.781 84.8976 127.32 84.7651 126.685L82.0065 113.566H92.5856L91.2387 126.542C91.1642 127.248 90.5708 127.781 89.8587 127.781ZM83.0263 114.394L85.5752 126.516C85.629 126.77 85.8595 126.953 86.123 126.953H89.8587C90.1457 126.953 90.3859 126.739 90.4148 126.456L91.6665 114.394H83.0263Z" fill="#75FFC1" fill-opacity="0.75"/>
<path d="M94.2609 62.2007L33.4595 66.8941C33.4236 66.8969 33.3891 66.8983 33.3546 66.8983C32.6715 66.8983 32.0905 66.3752 32.0381 65.6866C31.9801 64.9621 32.5266 64.3301 33.2539 64.2749L94.0567 59.5801C94.7826 59.5249 95.4215 60.0645 95.4781 60.789C95.5333 61.5121 94.9896 62.1442 94.2609 62.2007ZM95.4808 73.3691C95.5015 74.095 94.9247 74.6994 94.1947 74.7201L33.3933 76.3885C33.3795 76.3899 33.3684 76.3899 33.3546 76.3899C32.6412 76.3899 32.0533 75.8241 32.0326 75.1106C32.0133 74.3861 32.5887 73.7817 33.3187 73.761L94.1215 72.0912C94.8502 72.0664 95.4588 72.6432 95.4795 73.3691H95.4808ZM95.4822 85.5531C95.4822 86.279 94.8902 86.8682 94.1588 86.8682H33.356C32.626 86.8682 32.0326 86.279 32.0326 85.5531C32.0326 84.8272 32.6246 84.238 33.356 84.238H94.1588C94.8888 84.238 95.4822 84.8272 95.4822 85.5531Z" fill="#75FFC1" fill-opacity="0.75"/>
<g opacity="0.5">
<path d="M124.9 34.7111C124.9 36.0028 123.845 37.0475 122.548 37.0475H111.716C109.95 37.0475 108.436 38.3005 108.117 40.0269L106.42 49.2232C105.88 47.8681 104.485 46.9517 102.927 47.1022L102.012 47.1891L103.492 39.1823C104.219 35.2369 107.68 32.3734 111.716 32.3734H122.548C123.847 32.3734 124.9 33.4195 124.9 34.7098V34.7111Z" fill="#75FFC1" fill-opacity="0.75"/>
</g>
<path d="M106.566 50.7109L106.035 49.3764C105.548 48.1523 104.285 47.3864 102.967 47.5148L101.506 47.6542L103.085 39.1078C103.849 34.9664 107.478 31.9594 111.716 31.9594H122.548C124.073 31.9594 125.314 33.1931 125.314 34.7098C125.314 36.2264 124.073 37.4601 122.548 37.4601H111.716C110.15 37.4601 108.807 38.571 108.525 40.1014L106.566 50.7095V50.7109ZM103.253 46.673C104.407 46.673 105.495 47.2001 106.213 48.0695L107.712 39.9524C108.066 38.03 109.751 36.6335 111.718 36.6335H122.549C123.618 36.6335 124.487 35.771 124.487 34.7111C124.487 33.6513 123.618 32.7888 122.549 32.7888H111.718C107.88 32.7888 104.592 35.5102 103.9 39.2596L102.522 46.7268L102.89 46.6909C103.011 46.6785 103.134 46.673 103.254 46.673H103.253Z" fill="#75FFC1" fill-opacity="0.75"/>
<path d="M24.3487 59.9886C24.1376 59.9886 23.9582 59.8285 23.9375 59.6146C23.9154 59.3869 24.0824 59.1841 24.3101 59.1634L71.0383 54.648C71.266 54.6259 71.4688 54.7929 71.4909 55.0206C71.513 55.2483 71.346 55.4512 71.1183 55.4719L24.3901 59.9872C24.3763 59.9872 24.3625 59.9886 24.3501 59.9886H24.3487ZM75.918 54.8026C75.7123 54.8026 75.5343 54.6508 75.5081 54.441C75.4791 54.2147 75.6392 54.0063 75.8655 53.9773L85.4358 52.7464C85.6621 52.7174 85.8705 52.8775 85.8995 53.1038C85.9285 53.3301 85.7684 53.5385 85.5421 53.5675L75.9718 54.7984C75.9538 54.8012 75.9359 54.8012 75.918 54.8012V54.8026ZM90.5556 93.622H27.6138C27.3847 93.622 27.1998 93.437 27.1998 93.208C27.1998 92.9789 27.3847 92.794 27.6138 92.794H90.5556C90.7847 92.794 90.9696 92.9789 90.9696 93.208C90.9696 93.437 90.7847 93.622 90.5556 93.622Z" fill="#75FFC1" fill-opacity="0.75"/>
<g opacity="0.25">
<path d="M94.835 32.5721C84.8134 37.4946 78.5082 32.4604 80.0841 42.642C80.4429 44.9618 79.5929 47.3381 77.9479 49.5034L49.2674 52.2606C48.5884 50.0623 48.2544 45.8684 53.6226 42.4157C61.2803 37.4932 52.8347 24.4039 65.8964 21.4949C78.9581 18.5858 74.0039 -2.1114 93.0327 0.574078C112.06 3.25818 104.855 27.6483 94.8336 32.5694L94.835 32.5721Z" fill="#75FFC1" fill-opacity="0.75"/>
</g>
<path d="M48.9721 52.705L48.8727 52.3834C48.1606 50.0774 47.8005 45.6697 53.4005 42.0679C56.5138 40.0669 56.8215 36.628 57.1458 32.9875C57.3652 30.5325 57.5916 27.9947 58.7287 25.8571C60.0231 23.4227 62.3388 21.8647 65.8081 21.0919C71.2329 19.883 73.4132 15.5512 75.7234 10.9641C78.7856 4.88244 81.9527 -1.40622 93.0934 0.1656C96.6897 0.67344 99.5643 1.97064 101.638 4.02132C103.494 5.8581 104.669 8.24274 105.126 11.1104C105.749 15.0158 104.949 19.7064 102.931 23.9789C100.947 28.181 98.0628 31.4488 95.0199 32.9434C91.3091 34.7663 88.1558 35.2369 85.6235 35.6137C83.3534 35.9518 81.714 36.1974 80.9094 37.2904C80.2153 38.2329 80.0842 39.9124 80.4968 42.5771C80.8542 44.8914 80.0883 47.3726 78.2819 49.7531L78.1729 49.898L48.9762 52.705H48.9721ZM89.8021 0.74796C81.7926 0.74796 79.1941 5.90778 76.4617 11.3367C74.1667 15.8935 71.7945 20.6062 65.9875 21.9006C58.8225 23.4959 58.4085 28.1423 57.9697 33.0607C57.6412 36.7397 57.3018 40.5444 53.8476 42.7648C48.9624 45.9071 49.0024 49.6634 49.571 51.8162L77.7271 49.1087C79.3183 46.9573 79.9917 44.7465 79.6757 42.7041C79.2217 39.7675 79.3956 37.9459 80.2401 36.7991C81.2489 35.4287 83.0319 35.1624 85.4993 34.7953C87.9764 34.4255 91.0579 33.9659 94.6528 32.1995C97.5315 30.7864 100.275 27.6607 102.181 23.6242C104.129 19.4994 104.903 14.9854 104.306 11.2401C103.661 7.20084 101.172 2.14176 92.9761 0.98532C91.8321 0.82386 90.7764 0.74796 89.8021 0.74796Z" fill="#75FFC1" fill-opacity="0.75"/>
<path d="M87.3992 11.901C87.9064 10.9527 87.7798 9.89637 87.1165 9.54159C86.4532 9.18682 85.5043 9.66794 84.9971 10.6162C84.4899 11.5645 84.6165 12.6209 85.2798 12.9756C85.9431 13.3304 86.892 12.8493 87.3992 11.901Z" fill="#75FFC1" fill-opacity="0.75"/>
<path d="M96.4268 16.6094C96.934 15.6611 96.8074 14.6048 96.1441 14.25C95.4807 13.8952 94.5319 14.3763 94.0247 15.3246C93.5175 16.2729 93.6441 17.3292 94.3074 17.684C94.9707 18.0388 95.9196 17.5577 96.4268 16.6094Z" fill="#75FFC1" fill-opacity="0.75"/>
<path d="M82.7987 20.4916C83.1119 20.2584 83.4487 20.0569 83.8033 19.8941C83.8364 19.8789 83.9731 19.8527 83.8516 19.872C83.7302 19.8913 83.8709 19.8651 83.9013 19.8527C83.9841 19.8209 84.0683 19.7906 84.1525 19.7616C84.3374 19.6995 84.5264 19.6457 84.7169 19.6029C84.8121 19.5808 84.9087 19.5615 85.0039 19.5449C85.0481 19.538 85.0922 19.5311 85.135 19.5242C85.3241 19.4939 84.9363 19.5436 85.1267 19.527C85.3172 19.5104 85.5145 19.4939 85.7105 19.4925C85.8871 19.4925 86.0638 19.4994 86.2404 19.516C86.2859 19.5201 86.3522 19.5394 86.3977 19.5325C86.2597 19.5518 86.2528 19.5104 86.3342 19.5256C86.4391 19.5436 86.5426 19.5615 86.6461 19.5836C86.8352 19.625 87.0229 19.6774 87.205 19.7423C87.2533 19.7588 87.4134 19.8513 87.452 19.8361C87.4079 19.8527 87.2961 19.7657 87.401 19.8154C87.4645 19.8458 87.5279 19.8748 87.59 19.9065C87.7377 19.981 87.8798 20.0652 88.0178 20.1563C88.0868 20.2018 88.1531 20.2501 88.2207 20.2984C88.367 20.4019 88.073 20.1742 88.2097 20.2901C88.2469 20.3219 88.2856 20.3536 88.3242 20.3854C88.4622 20.504 88.5919 20.631 88.7161 20.7649C88.7727 20.8256 88.8265 20.8877 88.879 20.9512C88.8997 20.976 88.9204 21.0022 88.9411 21.0284C88.9949 21.0974 88.9825 21.0809 88.9024 20.9788C88.9217 21.005 88.9411 21.0312 88.9604 21.0588C89.057 21.1927 89.1453 21.332 89.2281 21.4756C89.3178 21.6301 89.3771 21.8109 89.471 21.9613C89.3551 21.7805 89.4351 21.8771 89.4627 21.9461C89.4806 21.9917 89.4972 22.0386 89.5138 22.0841C89.5455 22.1766 89.5759 22.2704 89.6021 22.3657C89.6283 22.4609 89.6518 22.5547 89.6711 22.6513C89.6807 22.6996 89.6904 22.7479 89.6987 22.7962C89.7042 22.828 89.7097 22.8611 89.7139 22.8928L89.6973 22.77C89.7042 22.9742 89.7346 23.1743 89.7304 23.38C89.729 23.4779 89.7235 23.5759 89.7139 23.6739C89.7097 23.7139 89.7014 23.7553 89.7001 23.7953C89.7042 23.5359 89.7042 23.7484 89.6918 23.8188C89.6131 24.2438 89.8077 24.7324 90.27 24.8372C90.6757 24.9297 91.2043 24.7144 91.2884 24.259C91.61 22.5078 91.0028 20.7097 89.747 19.4539C89.1067 18.8135 88.309 18.343 87.4424 18.0835C86.5757 17.8241 85.6111 17.7937 84.692 17.9303C83.7164 18.0752 82.7504 18.4754 81.9596 19.0647C81.7802 19.1986 81.6409 19.3352 81.5788 19.5601C81.5236 19.7588 81.5484 20.0224 81.6616 20.1977C81.8824 20.5399 82.4233 20.7718 82.7945 20.4944L82.7987 20.4916Z" fill="#75FFC1" fill-opacity="0.75"/>
<path d="M54.5348 46.6661C54.4272 46.6661 54.325 46.6026 54.2809 46.4977C54.2215 46.357 54.2864 46.1955 54.4272 46.1362C55.4249 45.7111 56.3895 45.1936 57.2934 44.5988C57.8565 44.2276 58.5672 43.717 59.064 43.0477C59.6836 42.2128 60.0231 41.0812 60.0727 39.6819C60.1003 38.8953 60.041 38.0894 59.9844 37.3111C59.9527 36.875 59.9196 36.4237 59.9002 35.9766C59.8671 35.1638 59.8809 34.2157 60.2314 33.3601C60.7062 32.1995 61.7467 31.3495 62.5816 30.6664C62.6989 30.5698 62.8728 30.5877 62.9694 30.705C63.066 30.8223 63.048 30.9962 62.9307 31.0928C62.1027 31.769 61.1643 32.5363 60.742 33.5685C60.4315 34.3275 60.4205 35.1997 60.4509 35.9531C60.4688 36.3906 60.5019 36.8363 60.5337 37.2683C60.5916 38.0632 60.6523 38.8843 60.6234 39.6998C60.5695 41.2123 60.1928 42.4488 59.5056 43.3748C58.9577 44.1131 58.1973 44.6623 57.5956 45.0584C56.6628 45.6725 55.6692 46.2052 54.6411 46.6426C54.6052 46.6578 54.5693 46.6647 54.5334 46.6647L54.5348 46.6661ZM62.3787 35.9849C62.3456 35.9849 62.3125 35.9794 62.2807 35.9669C62.1386 35.9131 62.0668 35.753 62.1207 35.6109C62.7168 34.0418 63.7877 32.6218 65.136 31.6117C65.2574 31.5206 65.4313 31.5454 65.5224 31.6669C65.6134 31.7883 65.5886 31.9622 65.4672 32.0533C64.2017 32.9999 63.1971 34.333 62.6368 35.8055C62.5954 35.9159 62.4905 35.9835 62.3787 35.9835V35.9849ZM72.8336 23.6573C72.7384 23.6573 72.6445 23.6077 72.5935 23.518C72.058 22.5809 71.7103 21.5211 71.5861 20.4502C71.5681 20.2984 71.6772 20.1618 71.829 20.1439C71.9794 20.1273 72.1174 20.2349 72.1353 20.3867C72.2499 21.3831 72.5742 22.3712 73.0723 23.2433C73.1482 23.3758 73.1013 23.5442 72.9702 23.6201C72.9274 23.6449 72.8805 23.656 72.8336 23.656V23.6573ZM76.0393 27.6952C75.9634 27.6952 75.8875 27.6635 75.8323 27.6028C75.2541 26.9528 74.6897 26.2752 74.1543 25.5866C74.0604 25.4665 74.0825 25.2926 74.2026 25.1988C74.3226 25.105 74.4965 25.127 74.5903 25.2471C75.1189 25.9261 75.675 26.5954 76.245 27.2357C76.3457 27.3502 76.336 27.5241 76.2215 27.6248C76.1691 27.6718 76.1028 27.6952 76.038 27.6952H76.0393ZM76.9612 43.0657H76.9584C76.8066 43.0657 76.6838 42.9401 76.6852 42.7869C76.7086 39.6239 77.8099 36.5148 79.7833 34.0322C79.8785 33.9135 80.0524 33.8928 80.1711 33.988C80.2897 34.0832 80.3104 34.2571 80.2152 34.3758C78.3177 36.7618 77.2606 39.7509 77.2372 42.791C77.2372 42.9428 77.113 43.0643 76.9612 43.0643V43.0657Z" fill="#75FFC1" fill-opacity="0.75"/>
<path opacity="0.5" d="M47.0552 42.0445C50.1648 42.0445 52.6856 38.7705 52.6856 34.7318C52.6856 30.6932 50.1648 27.4192 47.0552 27.4192C43.9456 27.4192 41.4248 30.6932 41.4248 34.7318C41.4248 38.7705 43.9456 42.0445 47.0552 42.0445Z" fill="#75FFC1" fill-opacity="0.75"/>
<path opacity="0.5" d="M53.6985 27.4192C55.046 27.4192 56.1383 25.8524 56.1383 23.9195C56.1383 21.9867 55.046 20.4199 53.6985 20.4199C52.351 20.4199 51.2587 21.9867 51.2587 23.9195C51.2587 25.8524 52.351 27.4192 53.6985 27.4192Z" fill="#75FFC1" fill-opacity="0.75"/>
<path opacity="0.5" d="M86.1934 43.7446C87.8313 43.7446 89.159 42.4255 89.159 40.7983C89.159 39.1711 87.8313 37.852 86.1934 37.852C84.5555 37.852 83.2278 39.1711 83.2278 40.7983C83.2278 42.4255 84.5555 43.7446 86.1934 43.7446Z" fill="#75FFC1" fill-opacity="0.75"/>
</g>
</g>
<defs>
<clipPath id="clip0_4_532">
<rect width="138" height="138" fill="white"/>
</clipPath>
<clipPath id="clip1_4_532">
<rect width="138" height="138" fill="white"/>
</clipPath>
</defs>
</svg>
